<?xml version="1.0" standalone="no"?>
<!DOCTYPE svg PUBLIC "-//W3C//DTD SVG 20010904//EN"
 "http://www.w3.org/TR/2001/REC-SVG-20010904/DTD/svg10.dtd">
<svg version="1.0" xmlns="http://www.w3.org/2000/svg"
 width="251.000000pt" height="251.000000pt" viewBox="0 0 251.000000 251.000000"
 preserveAspectRatio="xMidYMid meet">
<metadata>
Created by potrace 1.11, written by Peter Selinger 2001-2013
</metadata>
<g transform="translate(0.000000,251.000000) scale(0.100000,-0.100000)"
fill="#000000" stroke="none">
<path d="M737 2244 c-2 -2 -21 -6 -43 -8 -21 -3 -41 -5 -44 -7 -3 -1 -9 -3
-15 -4 -5 -1 -17 -5 -25 -8 -33 -12 -95 -30 -99 -28 -2 2 -7 -1 -10 -6 -3 -5
-22 -16 -41 -25 -19 -9 -53 -29 -75 -43 -34 -24 -54 -30 -116 -39 -60 -8 -209
-119 -209 -155 0 -6 -5 -11 -12 -11 -6 0 -9 -3 -5 -6 3 -3 -3 -25 -13 -49 -17
-41 -19 -80 -18 -609 0 -367 3 -566 10 -566 5 0 8 -6 5 -12 -14 -40 108 -193
164 -206 7 -2 17 -9 21 -15 4 -7 8 -8 8 -3 0 5 6 3 13 -3 8 -6 17 -8 20 -4 4
3 12 1 19 -4 8 -6 150 -10 380 -9 l367 1 20 -40 c11 -22 32 -49 47 -60 15 -11
32 -24 38 -30 31 -28 131 -44 196 -32 52 10 120 63 152 119 12 21 26 38 32 39
6 0 178 2 381 4 395 4 395 4 395 17 0 4 8 8 19 8 10 0 24 7 31 15 7 9 15 13
18 11 2 -3 24 14 49 37 44 42 86 114 98 172 10 48 11 229 2 243 -6 7 -6 12 -1
12 11 0 11 211 0 228 -4 7 -4 12 1 12 10 0 9 212 -1 228 -4 7 -4 12 1 12 10 0
9 212 -1 228 -4 7 -3 12 2 12 5 0 8 34 5 78 -6 125 -47 211 -131 276 -25 20
-49 36 -53 36 -4 0 -20 5 -36 12 -15 6 -36 12 -45 13 -10 2 -21 4 -25 5 -5 1
-16 2 -25 1 -10 -1 -18 3 -18 8 0 6 -7 11 -15 11 -8 0 -15 5 -15 10 0 6 -7 10
-15 10 -8 0 -15 4 -15 10 0 5 -3 9 -7 8 -5 -1 -37 12 -73 30 -72 34 -165 64
-174 55 -3 -4 -6 -2 -6 4 0 12 -45 16 -180 17 -95 0 -121 -3 -199 -19 -35 -7
-114 -37 -130 -49 -11 -8 -13 -8 -7 2 4 7 -10 1 -30 -13 -21 -14 -43 -24 -48
-21 -60 27 -194 78 -216 81 -8 2 -26 6 -40 10 -27 8 -256 15 -263 9z m218
-179 c51 -7 129 -31 181 -56 l29 -14 1 -563 1 -562 -26 7 c-14 3 -30 9 -36 13
-5 4 -20 6 -32 5 -13 -1 -23 2 -23 6 0 4 -15 7 -34 7 -19 0 -39 3 -45 6 -10 7
-221 8 -261 2 -79 -13 -106 -18 -113 -23 -4 -2 -19 -7 -33 -9 -15 -3 -31 -6
-37 -7 -8 -1 -11 160 -12 543 -1 300 1 553 3 563 3 9 15 20 28 23 13 3 24 9
24 13 0 4 6 8 13 9 6 1 52 12 101 25 90 23 167 27 271 12z m830 0 c61 -10 127
-31 172 -54 l41 -20 0 -561 0 -561 -21 7 c-12 4 -28 7 -34 7 -7 0 -13 3 -13 7
0 4 -6 7 -12 7 -7 1 -33 5 -58 9 -57 11 -320 11 -380 0 -24 -4 -62 -14 -84
-21 -22 -8 -43 -12 -46 -10 -5 3 -7 1096 -2 1116 5 17 136 62 217 75 22 3 41
7 42 8 4 4 141 -3 178 -9z m-1439 -190 c0 -19 -3 -35 -8 -35 -5 0 -6 -5 -2
-11 10 -17 12 -109 2 -109 -5 0 -6 -5 -2 -11 10 -17 12 -109 2 -109 -5 0 -4
-8 1 -18 7 -13 6 -23 -1 -30 -8 -8 -8 -12 -2 -12 6 0 11 -7 11 -15 0 -8 -5
-15 -11 -15 -6 0 -5 -4 2 -9 8 -4 14 -12 14 -16 0 -4 -6 -12 -14 -16 -7 -5 -8
-9 -2 -9 6 0 11 -7 11 -15 0 -8 -5 -15 -11 -15 -6 0 -5 -4 2 -9 8 -4 14 -12
14 -16 0 -4 -6 -12 -14 -16 -7 -5 -8 -9 -2 -9 6 0 11 -7 11 -15 0 -8 -5 -15
-11 -15 -6 0 -5 -4 2 -9 8 -4 14 -12 14 -16 0 -4 -6 -12 -14 -16 -7 -5 -8 -9
-2 -9 14 0 14 -30 0 -30 -7 0 -8 -3 -1 -8 12 -9 14 -102 2 -102 -4 0 -5 -5 -1
-11 10 -17 12 -109 2 -109 -5 0 -6 -5 -2 -11 11 -19 11 -109 0 -109 -7 0 -8
-3 -1 -8 13 -9 16 -72 3 -72 -5 0 -6 -5 -2 -11 4 -6 8 -38 9 -70 2 -60 22 -99
52 -99 7 0 13 -4 13 -9 0 -4 26 0 57 11 32 10 66 20 78 23 11 2 50 13 88 24
102 30 124 33 227 32 95 0 105 -1 170 -15 49 -11 194 -67 198 -77 2 -4 16 -3
33 1 16 5 31 9 34 10 3 0 26 10 52 21 27 12 55 23 63 25 123 32 175 40 255 38
97 -2 98 -2 213 -34 42 -12 82 -23 87 -24 6 -2 35 -10 65 -19 80 -24 120 -11
136 45 6 20 9 268 9 616 0 579 0 583 20 578 11 -3 25 -6 31 -6 17 0 79 -63 92
-93 8 -19 12 -173 11 -555 0 -586 1 -577 -66 -622 -20 -14 -40 -26 -45 -26 -4
-1 -9 -2 -10 -4 -2 -1 -198 -2 -437 -3 l-433 -2 -3 -59 c-2 -35 -9 -62 -17
-67 -7 -5 -9 -9 -3 -9 22 0 -13 -19 -46 -24 -30 -4 -42 -1 -63 19 -22 21 -26
32 -26 83 l0 58 -434 1 c-464 0 -474 1 -519 50 -42 47 -43 64 -42 620 1 487 3
533 19 558 26 40 50 61 82 73 50 18 59 15 60 -23z"/>
<path d="M690 1922 c0 -7 -5 -10 -10 -7 -7 5 -10 -22 -8 -82 l3 -88 160 -1
c88 0 165 1 170 3 8 3 11 66 6 154 -1 13 -10 17 -36 15 -19 -1 -35 3 -35 9 0
7 -3 7 -8 0 -4 -6 -55 -10 -117 -10 -62 0 -113 4 -117 10 -5 6 -8 5 -8 -3z"/>
<path d="M670 1505 c0 -47 3 -86 8 -86 4 -1 80 -2 170 -3 155 -1 162 0 163 19
1 23 1 136 0 148 -1 4 -77 7 -171 7 l-170 0 0 -85z"/>
<path d="M682 1252 c-8 -2 -12 -33 -12 -88 l0 -84 170 0 170 0 1 28 c4 112 3
135 -6 140 -11 7 -304 11 -323 4z"/>
<path d="M1650 1925 c0 -6 -31 -10 -72 -10 l-73 0 -2 -65 c-3 -114 -18 -105
169 -105 l163 0 5 24 c3 13 3 52 0 85 l-5 61 -85 0 c-47 0 -88 5 -92 10 -5 7
-8 7 -8 0z"/>
<path d="M1503 1502 l0 -87 163 0 c89 0 166 3 169 7 8 8 8 145 0 158 -4 6 -73
10 -169 10 l-163 0 0 -88z"/>
<path d="M1505 1245 c-2 -5 -3 -45 -3 -87 l1 -78 167 0 168 0 4 30 c3 17 2 30
-1 30 -3 0 -6 26 -6 57 l0 58 -164 0 c-104 1 -164 -3 -166 -10z"/>
</g>
</svg>
